<?xml version="1.0" encoding="UTF-8"?>
<!DOCTYPE svg PUBLIC "-//W3C//DTD SVG 1.1//EN" "http://www.w3.org/Graphics/SVG/1.1/DTD/svg11.dtd">
<svg xmlns="http://www.w3.org/2000/svg" version="1.1" width="512px" height="512px" style="shape-rendering:geometricPrecision; text-rendering:geometricPrecision; image-rendering:optimizeQuality; fill-rule:evenodd; clip-rule:evenodd" xmlns:xlink="http://www.w3.org/1999/xlink">
<g><path style="opacity:0.943" fill="#000000" d="M 207.5,20.5 C 240.562,20.0213 273.562,20.5213 306.5,22C 316.01,26.5053 321.51,34.0053 323,44.5C 323.966,54.1612 324.8,63.8279 325.5,73.5C 356.875,73.0378 388.208,73.5378 419.5,75C 430.065,78.897 436.231,86.397 438,97.5C 438.667,110.167 438.667,122.833 438,135.5C 437.215,137.286 436.049,138.786 434.5,140C 428.38,139.902 422.546,140.736 417,142.5C 412.52,252.205 407.52,361.872 402,471.5C 399.167,481 393,487.167 383.5,490C 298.167,490.667 212.833,490.667 127.5,490C 118,487.167 111.833,481 109,471.5C 103.48,361.872 98.4799,252.205 94,142.5C 88.4537,140.736 82.6204,139.902 76.5,140C 74.9512,138.786 73.7845,137.286 73,135.5C 72.3333,122.833 72.3333,110.167 73,97.5C 74.7685,86.397 80.9352,78.897 91.5,75C 122.792,73.5378 154.125,73.0378 185.5,73.5C 186.072,61.0365 187.572,48.7032 190,36.5C 193.503,28.4921 199.336,23.1588 207.5,20.5 Z M 215.5,34.5 C 243.876,34.0421 272.209,34.5421 300.5,36C 303.333,37.5 305.5,39.6667 307,42.5C 308.694,52.7695 309.86,63.1029 310.5,73.5C 306.167,73.5 301.833,73.5 297.5,73.5C 297.666,65.16 297.5,56.8267 297,48.5C 296.535,47.0692 295.701,45.9025 294.5,45C 281.566,43.861 268.566,43.361 255.5,43.5C 242.434,43.361 229.434,43.861 216.5,45C 215.299,45.9025 214.465,47.0692 214,48.5C 213.5,56.8267 213.334,65.16 213.5,73.5C 209.167,73.5 204.833,73.5 200.5,73.5C 201.14,63.1029 202.306,52.7695 204,42.5C 206.476,37.6934 210.31,35.0267 215.5,34.5 Z M 228.5,58.5 C 246.5,58.5 264.5,58.5 282.5,58.5C 282.5,63.5 282.5,68.5 282.5,73.5C 264.5,73.5 246.5,73.5 228.5,73.5C 228.5,68.5 228.5,63.5 228.5,58.5 Z M 97.5,88.5 C 202.834,88.3333 308.167,88.5 413.5,89C 418.428,90.9268 421.594,94.4268 423,99.5C 423.5,108.16 423.666,116.827 423.5,125.5C 311.5,125.5 199.5,125.5 87.5,125.5C 87.3336,116.827 87.5002,108.16 88,99.5C 89.5992,94.406 92.7658,90.7393 97.5,88.5 Z M 108.5,140.5 C 206.502,140.167 304.502,140.5 402.5,141.5C 397.418,249.123 392.585,356.79 388,464.5C 386.707,471.459 382.541,475.293 375.5,476C 295.5,476.667 215.5,476.667 135.5,476C 128.459,475.293 124.293,471.459 123,464.5C 118.387,356.458 113.554,248.458 108.5,140.5 Z"/></g>
<g><path style="opacity:0.928" fill="#000000" d="M 161.5,199.5 C 167.378,198.509 170.878,200.843 172,206.5C 174.117,275.165 175.784,343.832 177,412.5C 172.333,419.167 167.667,419.167 163,412.5C 160.361,342.85 158.694,273.184 158,203.5C 158.69,201.65 159.856,200.316 161.5,199.5 Z"/></g>
<g><path style="opacity:0.929" fill="#000000" d="M 222.5,199.5 C 226.594,198.705 229.761,200.038 232,203.5C 233.453,273.161 234.12,342.828 234,412.5C 229.333,419.167 224.667,419.167 220,412.5C 218.805,343.167 218.138,273.834 218,204.5C 219.025,202.313 220.525,200.646 222.5,199.5 Z"/></g>
<g><path style="opacity:0.928" fill="#000000" d="M 282.5,199.5 C 287.28,198.641 290.78,200.308 293,204.5C 292.862,273.834 292.195,343.167 291,412.5C 286.333,419.167 281.667,419.167 277,412.5C 276.868,342.828 277.535,273.161 279,203.5C 280.376,202.295 281.542,200.962 282.5,199.5 Z"/></g>
<g><path style="opacity:0.928" fill="#000000" d="M 343.5,199.5 C 347.684,198.704 350.85,200.037 353,203.5C 352.298,273.183 350.631,342.85 348,412.5C 343.333,419.167 338.667,419.167 334,412.5C 335.234,343.499 336.901,274.499 339,205.5C 339.599,202.746 341.099,200.746 343.5,199.5 Z"/></g>
</svg>
