<?xml version="1.0" encoding="UTF-8"?>
<!DOCTYPE svg PUBLIC "-//W3C//DTD SVG 1.1//EN" "http://www.w3.org/Graphics/SVG/1.1/DTD/svg11.dtd">
<svg xmlns="http://www.w3.org/2000/svg" version="1.1" width="512px" height="512px" style="shape-rendering:geometricPrecision; text-rendering:geometricPrecision; image-rendering:optimizeQuality; fill-rule:evenodd; clip-rule:evenodd" xmlns:xlink="http://www.w3.org/1999/xlink">
<g><path style="opacity:0.995" fill="#000000" d="M 248.5,71.5 C 263.983,69.1491 274.483,75.1491 280,89.5C 280.5,136.499 280.667,183.499 280.5,230.5C 327.501,230.333 374.501,230.5 421.5,231C 436.009,236.506 441.842,247.006 439,262.5C 436.5,271.667 430.667,277.5 421.5,280C 374.501,280.5 327.501,280.667 280.5,280.5C 280.667,327.501 280.5,374.501 280,421.5C 274.494,436.009 263.994,441.842 248.5,439C 239.333,436.5 233.5,430.667 231,421.5C 230.5,374.501 230.333,327.501 230.5,280.5C 183.499,280.667 136.499,280.5 89.5,280C 74.9911,274.494 69.1578,263.994 72,248.5C 74.5,239.333 80.3333,233.5 89.5,231C 136.499,230.5 183.499,230.333 230.5,230.5C 230.333,183.499 230.5,136.499 231,89.5C 233.683,80.318 239.517,74.318 248.5,71.5 Z"/></g>
</svg>
